<svg width="32" height="32" viewBox="0 0 32 32" fill="none" xmlns="http://www.w3.org/2000/svg">
<mask id="path-1-outside-1_2627_30114" maskUnits="userSpaceOnUse" x="1.6665" y="1.6665" width="28" height="28" fill="black">
<rect fill="white" x="1.6665" y="1.6665" width="28" height="28"/>
<path fill-rule="evenodd" clip-rule="evenodd" d="M14.8359 5.37379C14.0528 4.85055 13.1321 4.57127 12.1903 4.57127C10.9274 4.57127 9.71617 5.07296 8.82314 5.966C7.93011 6.85903 7.42841 8.07023 7.42841 9.33317C7.42841 10.275 7.70769 11.1957 8.23094 11.9787C8.75418 12.7618 9.49789 13.3722 10.368 13.7326C11.2381 14.093 12.1956 14.1873 13.1193 14.0036C14.043 13.8198 14.8915 13.3663 15.5575 12.7003C16.2235 12.0344 16.677 11.1859 16.8607 10.2622C17.0445 9.33845 16.9502 8.38099 16.5897 7.51087C16.2293 6.64074 15.619 5.89704 14.8359 5.37379ZM8.48651 3.79004C9.58284 3.0575 10.8718 2.6665 12.1903 2.6665C13.9584 2.6665 15.6541 3.36888 16.9044 4.61913C18.1546 5.86937 18.857 7.56506 18.857 9.33317C18.857 10.6517 18.466 11.9406 17.7334 13.037C17.0009 14.1333 15.9597 14.9878 14.7415 15.4924C13.5234 15.997 12.1829 16.129 10.8897 15.8717C9.59651 15.6145 8.40862 14.9796 7.47627 14.0472C6.54392 13.1149 5.90898 11.927 5.65175 10.6338C5.39451 9.34057 5.52653 8.00012 6.03112 6.78195C6.5357 5.56377 7.39019 4.52258 8.48651 3.79004ZM27.1427 17.2236L28.776 18.857C28.9532 19.0335 29.0937 19.2434 29.1894 19.4746C29.285 19.7057 29.3339 19.9535 29.3332 20.2036V29.3332H2.6665V24.5713C2.66852 22.8038 3.37155 21.1093 4.62135 19.8594C5.87116 18.6096 7.56568 17.9066 9.33317 17.9046H15.0475C16.8149 17.9066 18.5095 18.6096 19.7593 19.8594C21.0091 21.1093 21.7121 22.8038 21.7141 24.5713V27.4284H27.4284V20.2036L25.796 18.5713C25.4144 18.7572 24.9958 18.8549 24.5713 18.857C24.0062 18.857 23.4538 18.6894 22.9839 18.3755C22.5141 18.0615 22.1479 17.6153 21.9316 17.0932C21.7154 16.5711 21.6588 15.9967 21.769 15.4424C21.8793 14.8882 22.1514 14.3791 22.551 13.9795C22.9505 13.58 23.4596 13.3078 24.0139 13.1976C24.5681 13.0873 25.1426 13.1439 25.6646 13.3602C26.1867 13.5764 26.6329 13.9426 26.9469 14.4125C27.2608 14.8823 27.4284 15.4347 27.4284 15.9998C27.4261 16.424 27.3285 16.8423 27.1427 17.2236ZM5.96767 21.2058C5.07496 22.0985 4.57278 23.3088 4.57127 24.5713V27.4284H19.8094V24.5713C19.8078 23.3088 19.3057 22.0985 18.413 21.2058C17.5203 20.3131 16.3099 19.8109 15.0475 19.8094H9.33317C8.0707 19.8109 6.86037 20.3131 5.96767 21.2058Z"/>
</mask>
<path fill-rule="evenodd" clip-rule="evenodd" d="M14.8359 5.37379C14.0528 4.85055 13.1321 4.57127 12.1903 4.57127C10.9274 4.57127 9.71617 5.07296 8.82314 5.966C7.93011 6.85903 7.42841 8.07023 7.42841 9.33317C7.42841 10.275 7.70769 11.1957 8.23094 11.9787C8.75418 12.7618 9.49789 13.3722 10.368 13.7326C11.2381 14.093 12.1956 14.1873 13.1193 14.0036C14.043 13.8198 14.8915 13.3663 15.5575 12.7003C16.2235 12.0344 16.677 11.1859 16.8607 10.2622C17.0445 9.33845 16.9502 8.38099 16.5897 7.51087C16.2293 6.64074 15.619 5.89704 14.8359 5.37379ZM8.48651 3.79004C9.58284 3.0575 10.8718 2.6665 12.1903 2.6665C13.9584 2.6665 15.6541 3.36888 16.9044 4.61913C18.1546 5.86937 18.857 7.56506 18.857 9.33317C18.857 10.6517 18.466 11.9406 17.7334 13.037C17.0009 14.1333 15.9597 14.9878 14.7415 15.4924C13.5234 15.997 12.1829 16.129 10.8897 15.8717C9.59651 15.6145 8.40862 14.9796 7.47627 14.0472C6.54392 13.1149 5.90898 11.927 5.65175 10.6338C5.39451 9.34057 5.52653 8.00012 6.03112 6.78195C6.5357 5.56377 7.39019 4.52258 8.48651 3.79004ZM27.1427 17.2236L28.776 18.857C28.9532 19.0335 29.0937 19.2434 29.1894 19.4746C29.285 19.7057 29.3339 19.9535 29.3332 20.2036V29.3332H2.6665V24.5713C2.66852 22.8038 3.37155 21.1093 4.62135 19.8594C5.87116 18.6096 7.56568 17.9066 9.33317 17.9046H15.0475C16.8149 17.9066 18.5095 18.6096 19.7593 19.8594C21.0091 21.1093 21.7121 22.8038 21.7141 24.5713V27.4284H27.4284V20.2036L25.796 18.5713C25.4144 18.7572 24.9958 18.8549 24.5713 18.857C24.0062 18.857 23.4538 18.6894 22.9839 18.3755C22.5141 18.0615 22.1479 17.6153 21.9316 17.0932C21.7154 16.5711 21.6588 15.9967 21.769 15.4424C21.8793 14.8882 22.1514 14.3791 22.551 13.9795C22.9505 13.58 23.4596 13.3078 24.0139 13.1976C24.5681 13.0873 25.1426 13.1439 25.6646 13.3602C26.1867 13.5764 26.6329 13.9426 26.9469 14.4125C27.2608 14.8823 27.4284 15.4347 27.4284 15.9998C27.4261 16.424 27.3285 16.8423 27.1427 17.2236ZM5.96767 21.2058C5.07496 22.0985 4.57278 23.3088 4.57127 24.5713V27.4284H19.8094V24.5713C19.8078 23.3088 19.3057 22.0985 18.413 21.2058C17.5203 20.3131 16.3099 19.8109 15.0475 19.8094H9.33317C8.0707 19.8109 6.86037 20.3131 5.96767 21.2058Z" fill="#EAA30A"/>
<path d="M14.8359 5.37379L14.7248 5.54009L14.8359 5.37379ZM8.82314 5.966L8.96456 6.10742L8.82314 5.966ZM8.23094 11.9787L8.06464 12.0899L8.23094 11.9787ZM10.368 13.7326L10.4446 13.5478L10.368 13.7326ZM13.1193 14.0036L13.1583 14.1997L13.1193 14.0036ZM16.8607 10.2622L17.0569 10.3012L16.8607 10.2622ZM16.5897 7.51087L16.7745 7.43433L16.5897 7.51087ZM8.48651 3.79004L8.59763 3.95633V3.95633L8.48651 3.79004ZM16.9044 4.61913L16.7629 4.76055L16.9044 4.61913ZM10.8897 15.8717L10.9287 15.6756L10.8897 15.8717ZM7.47627 14.0472L7.61769 13.9058L7.47627 14.0472ZM5.65175 10.6338L5.45559 10.6728L5.65175 10.6338ZM6.03112 6.78195L5.84634 6.70541L6.03112 6.78195ZM28.776 18.857L28.6346 18.9984L28.6349 18.9987L28.776 18.857ZM27.1427 17.2236L26.9629 17.136L26.9004 17.2642L27.0013 17.3651L27.1427 17.2236ZM29.1894 19.4746L29.0046 19.551L29.1894 19.4746ZM29.3332 20.2036L29.1332 20.2031V20.2036H29.3332ZM29.3332 29.3332V29.5332H29.5332V29.3332H29.3332ZM2.6665 29.3332H2.4665V29.5332H2.6665V29.3332ZM2.6665 24.5713L2.4665 24.571V24.5713H2.6665ZM4.62135 19.8594L4.76277 20.0009L4.62135 19.8594ZM9.33317 17.9046V17.7046H9.33294L9.33317 17.9046ZM15.0475 17.9046L15.0477 17.7046H15.0475V17.9046ZM21.7141 24.5713H21.9141V24.571L21.7141 24.5713ZM21.7141 27.4284H21.5141V27.6284H21.7141V27.4284ZM27.4284 27.4284V27.6284H27.6284V27.4284H27.4284ZM27.4284 20.2036H27.6284V20.1208L27.5698 20.0622L27.4284 20.2036ZM25.796 18.5713L25.9374 18.4298L25.8366 18.329L25.7084 18.3915L25.796 18.5713ZM24.5713 18.857V19.057L24.5723 19.057L24.5713 18.857ZM22.9839 18.3755L22.8728 18.5418L22.9839 18.3755ZM21.9316 17.0932L22.1164 17.0167V17.0167L21.9316 17.0932ZM21.769 15.4424L21.9652 15.4815V15.4815L21.769 15.4424ZM22.551 13.9795L22.6924 14.121L22.551 13.9795ZM24.0139 13.1976L23.9748 13.0014L24.0139 13.1976ZM25.6646 13.3602L25.5881 13.545L25.6646 13.3602ZM26.9469 14.4125L27.1132 14.3014L27.1132 14.3014L26.9469 14.4125ZM27.4284 15.9998L27.6284 16.0009V15.9998H27.4284ZM4.57127 24.5713L4.37127 24.571V24.5713H4.57127ZM5.96767 21.2058L5.82624 21.0643H5.82624L5.96767 21.2058ZM4.57127 27.4284H4.37127V27.6284H4.57127V27.4284ZM19.8094 27.4284V27.6284H20.0094V27.4284H19.8094ZM19.8094 24.5713H20.0094V24.571L19.8094 24.5713ZM18.413 21.2058L18.5544 21.0643L18.413 21.2058ZM15.0475 19.8094L15.0477 19.6094H15.0475V19.8094ZM9.33317 19.8094V19.6094H9.33293L9.33317 19.8094ZM12.1903 4.77127C13.0926 4.77127 13.9746 5.03882 14.7248 5.54009L14.947 5.2075C14.131 4.66228 13.1717 4.37127 12.1903 4.37127V4.77127ZM8.96456 6.10742C9.82008 5.25189 10.9804 4.77127 12.1903 4.77127V4.37127C10.8743 4.37127 9.61226 4.89404 8.68172 5.82457L8.96456 6.10742ZM7.62841 9.33317C7.62841 8.12328 8.10904 6.96294 8.96456 6.10742L8.68172 5.82457C7.75118 6.75511 7.22841 8.01719 7.22841 9.33317H7.62841ZM8.39723 11.8676C7.89596 11.1174 7.62841 10.2354 7.62841 9.33317H7.22841C7.22841 10.3145 7.51942 11.2739 8.06464 12.0899L8.39723 11.8676ZM10.4446 13.5478C9.61097 13.2025 8.8985 12.6178 8.39723 11.8676L8.06464 12.0899C8.60986 12.9058 9.38481 13.5418 10.2915 13.9174L10.4446 13.5478ZM13.0803 13.8074C12.1954 13.9834 11.2781 13.8931 10.4446 13.5478L10.2915 13.9174C11.1981 14.2929 12.1958 14.3912 13.1583 14.1997L13.0803 13.8074ZM15.4161 12.5589C14.7781 13.1969 13.9652 13.6314 13.0803 13.8074L13.1583 14.1997C14.1208 14.0083 15.005 13.5357 15.6989 12.8418L15.4161 12.5589ZM16.6646 10.2232C16.4885 11.1081 16.0541 11.9209 15.4161 12.5589L15.6989 12.8418C16.3928 12.1478 16.8654 11.2637 17.0569 10.3012L16.6646 10.2232ZM16.405 7.5874C16.7502 8.42098 16.8406 9.33823 16.6646 10.2232L17.0569 10.3012C17.2483 9.33867 17.1501 8.341 16.7745 7.43433L16.405 7.5874ZM14.7248 5.54009C15.475 6.04135 16.0597 6.75383 16.405 7.5874L16.7745 7.43433C16.399 6.52766 15.763 5.75272 14.947 5.2075L14.7248 5.54009ZM12.1903 2.4665C10.8322 2.4665 9.50462 2.86923 8.3754 3.62375L8.59763 3.95633C9.66107 3.24577 10.9113 2.8665 12.1903 2.8665V2.4665ZM17.0458 4.4777C15.758 3.18995 14.0115 2.4665 12.1903 2.4665V2.8665C13.9054 2.8665 15.5502 3.54781 16.7629 4.76055L17.0458 4.4777ZM19.057 9.33317C19.057 7.51202 18.3335 5.76545 17.0458 4.4777L16.7629 4.76055C17.9757 5.97328 18.657 7.6181 18.657 9.33317H19.057ZM17.8997 13.1481C18.6543 12.0189 19.057 10.6913 19.057 9.33317H18.657C18.657 10.6122 18.2777 11.8624 17.5672 12.9259L17.8997 13.1481ZM14.8181 15.6771C16.0728 15.1574 17.1452 14.2773 17.8997 13.1481L17.5672 12.9259C16.8566 13.9893 15.8466 14.8181 14.665 15.3076L14.8181 15.6771ZM10.8507 16.0679C12.1827 16.3328 13.5634 16.1969 14.8181 15.6771L14.665 15.3076C13.4834 15.797 12.1831 15.9251 10.9287 15.6756L10.8507 16.0679ZM7.33485 14.1886C8.29517 15.149 9.51869 15.8029 10.8507 16.0679L10.9287 15.6756C9.67432 15.4261 8.52207 14.8102 7.61769 13.9058L7.33485 14.1886ZM5.45559 10.6728C5.72054 12.0048 6.37453 13.2283 7.33485 14.1886L7.61769 13.9058C6.71331 13.0014 6.09742 11.8492 5.8479 10.5948L5.45559 10.6728ZM5.84634 6.70541C5.32662 7.96013 5.19064 9.34079 5.45559 10.6728L5.8479 10.5948C5.59839 9.34034 5.72645 8.04011 6.21589 6.85848L5.84634 6.70541ZM8.3754 3.62375C7.24618 4.37826 6.36606 5.45069 5.84634 6.70541L6.21589 6.85848C6.70534 5.67686 7.53419 4.6669 8.59763 3.95633L8.3754 3.62375ZM28.9174 18.7156L27.2841 17.0822L27.0013 17.3651L28.6346 18.9984L28.9174 18.7156ZM29.3742 19.3981C29.2684 19.1425 29.1131 18.9105 28.9172 18.7153L28.6349 18.9987C28.7934 19.1566 28.919 19.3443 29.0046 19.551L29.3742 19.3981ZM29.5332 20.2042C29.5339 19.9276 29.4799 19.6537 29.3742 19.3981L29.0046 19.551C29.0901 19.7577 29.1338 19.9794 29.1332 20.2031L29.5332 20.2042ZM29.5332 29.3332V20.2036H29.1332V29.3332H29.5332ZM2.6665 29.5332H29.3332V29.1332H2.6665V29.5332ZM2.4665 24.5713V29.3332H2.8665V24.5713H2.4665ZM4.47993 19.718C3.19267 21.0053 2.46858 22.7506 2.4665 24.571L2.8665 24.5715C2.86846 22.857 3.55042 21.2132 4.76277 20.0009L4.47993 19.718ZM9.33294 17.7046C7.51249 17.7067 5.76719 18.4308 4.47993 19.718L4.76277 20.0009C5.97513 18.7885 7.61887 18.1066 9.3334 18.1046L9.33294 17.7046ZM15.0475 17.7046H9.33317V18.1046H15.0475V17.7046ZM19.9007 19.718C18.6134 18.4308 16.8681 17.7067 15.0477 17.7046L15.0472 18.1046C16.7618 18.1066 18.4055 18.7885 19.6179 20.0009L19.9007 19.718ZM21.9141 24.571C21.912 22.7506 21.188 21.0053 19.9007 19.718L19.6179 20.0009C20.8302 21.2132 21.5122 22.857 21.5141 24.5715L21.9141 24.571ZM21.9141 27.4284V24.5713H21.5141V27.4284H21.9141ZM27.4284 27.2284H21.7141V27.6284H27.4284V27.2284ZM27.2284 20.2036V27.4284H27.6284V20.2036H27.2284ZM25.6546 18.7127L27.287 20.3451L27.5698 20.0622L25.9374 18.4298L25.6546 18.7127ZM24.5723 19.057C25.0268 19.0547 25.475 18.9501 25.8836 18.7511L25.7084 18.3915C25.3538 18.5643 24.9648 18.655 24.5703 18.657L24.5723 19.057ZM22.8728 18.5418C23.3756 18.8777 23.9666 19.057 24.5713 19.057V18.657C24.0457 18.657 23.532 18.5011 23.095 18.2092L22.8728 18.5418ZM21.7468 17.1698C21.9782 17.7284 22.3701 18.2058 22.8728 18.5418L23.095 18.2092C22.6581 17.9172 22.3175 17.5022 22.1164 17.0167L21.7468 17.1698ZM21.5729 15.4034C21.4549 15.9964 21.5154 16.6111 21.7468 17.1698L22.1164 17.0167C21.9153 16.5312 21.8626 15.9969 21.9652 15.4815L21.5729 15.4034ZM22.4095 13.8381C21.982 14.2657 21.6908 14.8104 21.5729 15.4034L21.9652 15.4815C22.0677 14.966 22.3208 14.4926 22.6924 14.121L22.4095 13.8381ZM23.9748 13.0014C23.3818 13.1194 22.8371 13.4106 22.4095 13.8381L22.6924 14.121C23.064 13.7493 23.5374 13.4963 24.0529 13.3938L23.9748 13.0014ZM25.7412 13.1754C25.1826 12.944 24.5679 12.8835 23.9748 13.0014L24.0529 13.3938C24.5683 13.2912 25.1026 13.3438 25.5881 13.545L25.7412 13.1754ZM27.1132 14.3014C26.7773 13.7986 26.2998 13.4068 25.7412 13.1754L25.5881 13.545C26.0736 13.7461 26.4886 14.0866 26.7806 14.5236L27.1132 14.3014ZM27.6284 15.9998C27.6284 15.3952 27.4491 14.8041 27.1132 14.3014L26.7806 14.5236C27.0726 14.9606 27.2284 15.4743 27.2284 15.9998H27.6284ZM27.3225 17.3112C27.5214 16.9029 27.626 16.4551 27.6284 16.0009L27.2284 15.9988C27.2263 16.393 27.1356 16.7817 26.9629 17.136L27.3225 17.3112ZM4.77127 24.5715C4.77271 23.362 5.25383 22.2024 6.10909 21.3472L5.82624 21.0643C4.89609 21.9945 4.37284 23.2556 4.37127 24.571L4.77127 24.5715ZM4.77127 27.4284V24.5713H4.37127V27.4284H4.77127ZM19.8094 27.2284H4.57127V27.6284H19.8094V27.2284ZM19.6094 24.5713V27.4284H20.0094V24.5713H19.6094ZM18.2715 21.3472C19.1268 22.2024 19.6079 23.362 19.6094 24.5715L20.0094 24.571C20.0078 23.2556 19.4845 21.9945 18.5544 21.0643L18.2715 21.3472ZM15.0472 20.0094C16.2567 20.0108 17.4163 20.4919 18.2715 21.3472L18.5544 21.0643C17.6242 20.1342 16.3631 19.6109 15.0477 19.6094L15.0472 20.0094ZM9.33317 20.0094H15.0475V19.6094H9.33317V20.0094ZM6.10909 21.3472C6.96434 20.4919 8.1239 20.0108 9.33341 20.0094L9.33293 19.6094C8.0175 19.6109 6.7564 20.1342 5.82624 21.0643L6.10909 21.3472Z" fill="#EAA30A" mask="url(#path-1-outside-1_2627_30114)"/>
</svg>
