<svg width="32" height="32" viewBox="0 0 32 32" fill="none" xmlns="http://www.w3.org/2000/svg">
<path fill-rule="evenodd" clip-rule="evenodd" d="M27.7312 23.4665C27.7312 25.819 25.817 27.7331 23.4645 27.7331H8.53118C6.17865 27.7331 4.26452 25.819 4.26452 23.4665V11.1998H27.7312V23.4665ZM29.3028 7.93317C29.243 7.3417 29.0948 6.77584 28.8718 6.24944C28.7977 6.07397 28.7156 5.90277 28.6249 5.7369C27.722 4.0745 26.0388 2.8969 24.0665 2.6969C23.8692 2.67664 23.6692 2.6665 23.4665 2.6665H8.53317C8.3305 2.6665 8.1305 2.67664 7.93317 2.6969C5.9609 2.8969 4.2777 4.0745 3.37477 5.7369C3.2841 5.90277 3.20197 6.07397 3.12784 6.24944C2.9049 6.77584 2.75664 7.3417 2.6969 7.93317C2.67664 8.1305 2.6665 8.3305 2.6665 8.53317V11.1998V23.4665C2.6665 26.7065 5.29317 29.3332 8.53317 29.3332H23.4665C26.7065 29.3332 29.3332 26.7065 29.3332 23.4665V11.1998V8.53317C29.3332 8.3305 29.323 8.1305 29.3028 7.93317Z" fill="#49ADC5"/>
<path fill-rule="evenodd" clip-rule="evenodd" d="M12.7197 25.7579L17.6738 12.7534L19.2836 13.3667L14.3295 26.3712L12.7197 25.7579Z" fill="#49ADC5"/>
<path fill-rule="evenodd" clip-rule="evenodd" d="M22.205 19.1404L19.5259 16.5031L20.7344 15.2754L24.6607 19.1404L20.7344 23.0053L19.5259 21.7776L22.205 19.1404Z" fill="#49ADC5"/>
<path fill-rule="evenodd" clip-rule="evenodd" d="M9.79497 19.1404L12.4741 21.7777L11.2656 23.0054L7.33933 19.1404L11.2656 15.2754L12.4741 16.5031L9.79497 19.1404Z" fill="#49ADC5"/>
</svg>
