<svg width="32" height="32" viewBox="0 0 32 32" fill="none" xmlns="http://www.w3.org/2000/svg">
<path d="M31.2227 12.5498L29.6987 11.7116L15.9824 4.09144H15.8148C15.7214 4.05194 15.6244 4.02132 15.5252 4H14.9613C14.8572 4.02134 14.7552 4.05194 14.6565 4.09144H14.4889L0.772605 11.7116C0.53806 11.8445 0.342971 12.0373 0.207242 12.2702C0.0715123 12.5031 0 12.7679 0 13.0375C0 13.3071 0.0715123 13.5719 0.207242 13.8048C0.342971 14.0377 0.53806 14.2305 0.772605 14.3634L4.56744 16.4666V23.6905C4.56744 24.9031 5.04914 26.066 5.90658 26.9234C6.76401 27.7809 7.92694 28.2626 9.13953 28.2626H21.3318C22.5444 28.2626 23.7073 27.7809 24.5647 26.9234C25.4222 26.066 25.9039 24.9031 25.9039 23.6905V16.4666L28.9519 14.7597V19.1184C28.9519 19.5226 29.1125 19.9102 29.3983 20.196C29.6841 20.4818 30.0718 20.6424 30.476 20.6424C30.8802 20.6424 31.2678 20.4818 31.5536 20.196C31.8394 19.9102 32 19.5226 32 19.1184V13.8757C31.9995 13.6057 31.9273 13.3406 31.7908 13.1076C31.6542 12.8746 31.4582 12.6821 31.2227 12.5498ZM22.8558 23.6905C22.8558 24.0947 22.6952 24.4823 22.4094 24.7681C22.1236 25.0539 21.736 25.2145 21.3318 25.2145H9.13953C8.73534 25.2145 8.34769 25.0539 8.06188 24.7681C7.77607 24.4823 7.6155 24.0947 7.6155 23.6905V18.1582L14.4889 21.9683L14.7175 22.0598H14.8547C14.9812 22.0757 15.1092 22.0757 15.2357 22.0598C15.3622 22.0757 15.4902 22.0757 15.6167 22.0598H15.7538C15.8347 22.0427 15.9121 22.0118 15.9824 21.9683L22.8558 18.1582V23.6905ZM15.2357 18.905L4.65888 13.0223L15.2357 7.1395L25.8124 13.0223L15.2357 18.905Z" fill="#E25A93"/>
</svg>
