<svg width="40" height="41" viewBox="0 0 40 41" fill="none" xmlns="http://www.w3.org/2000/svg">
<path d="M15.9605 13.4903H19.6383C20.2849 12.1414 19.3062 10.5509 17.799 10.5509C16.2946 10.5509 15.3113 12.1389 15.9605 13.4903Z" fill="#F9F9FA"/>
<path d="M17.7991 8.50002C20.3978 8.50002 22.3469 10.9233 21.7829 13.4903H26.9797V11.2344C26.9797 10.8569 26.6752 10.5508 26.2996 10.5508H24.9271C24.7707 10.0004 24.5525 9.4762 24.2813 8.98578L25.2524 8.00954C25.518 7.7426 25.518 7.30974 25.2524 7.0428L23.329 5.10931C23.0634 4.84237 22.6328 4.84237 22.3673 5.10931L21.3961 6.08556C20.9083 5.8128 20.3868 5.59357 19.8392 5.43628V4.05664C19.8392 3.67909 19.5348 3.37305 19.1592 3.37305H16.439C16.0635 3.37305 15.759 3.67909 15.759 4.05664V5.43635C15.2114 5.59357 14.69 5.81287 14.2021 6.08563L13.231 5.10931C12.9654 4.84237 12.5348 4.84237 12.2692 5.10931L10.3458 7.0428C10.0803 7.30974 10.0803 7.7426 10.3458 8.00954L11.3171 8.98578C11.0458 9.4762 10.8276 10.0004 10.6712 10.5508H9.29863C8.92305 10.5508 8.61859 10.8569 8.61859 11.2344V13.4903H13.8176C13.2505 10.9166 15.2059 8.50002 17.7991 8.50002Z" fill="#F9F9FA"/>
<path d="M34.8266 25.088L30.8232 19.0703C30.755 17.8529 30.5118 16.6716 30.0977 15.5409H5.74788C3.45071 21.8101 6.59181 29.0397 13.1626 31.3833V37.3477C13.1626 37.9137 13.6189 38.373 14.1826 38.373H25.8113C26.3744 38.373 26.8313 37.9137 26.8313 37.3477V32.084H29.8235C30.3866 32.084 30.8436 31.6246 30.8436 31.0586V26.6835H33.9786C34.792 26.6835 35.2795 25.7689 34.8266 25.088Z" fill="#F9F9FA"/>
</svg>
