<svg width="33" height="32" viewBox="0 0 33 32" fill="none" xmlns="http://www.w3.org/2000/svg">
<path d="M25.8333 2.68018H8.5C6.892 2.68018 4.5 3.74551 4.5 6.68018V25.3468C4.5 28.2815 6.892 29.3468 8.5 29.3468H28.5V26.6802H8.516C7.9 26.6642 7.16667 26.4202 7.16667 25.3468C7.16667 25.2122 7.17867 25.0922 7.19867 24.9828C7.348 24.2162 7.976 24.0268 8.51467 24.0135H27.1667C27.1907 24.0135 27.208 24.0015 27.232 24.0002H28.5V5.34684C28.5 3.87618 27.304 2.68018 25.8333 2.68018ZM25.8333 21.3468H7.16667V6.68018C7.16667 5.60551 7.9 5.36284 8.5 5.34684H17.8333V14.6802L20.5 13.3468L23.1667 14.6802V5.34684H25.8333V21.3468Z" fill="#0BB09F"/>
</svg>
