<svg width="32" height="32" viewBox="0 0 32 32" fill="none" xmlns="http://www.w3.org/2000/svg">
<path d="M1.21028 23.7285H30.8023C31.1061 23.729 31.3984 23.8448 31.6202 24.0524C31.842 24.26 31.9768 24.5441 31.9973 24.8472C32.0178 25.1504 31.9225 25.45 31.7307 25.6856C31.5389 25.9212 31.2648 26.0753 30.9638 26.1167L30.8023 26.1279H1.21188C0.905757 26.131 0.610029 26.017 0.385247 25.8091C0.160466 25.6013 0.0236405 25.3154 0.0027882 25.01C-0.0180641 24.7046 0.0786348 24.4027 0.273084 24.1663C0.467533 23.9298 0.745019 23.7766 1.04872 23.7381L1.21188 23.7285H30.8007H1.21188H1.21028ZM26.0036 5.3335C27.5488 5.3335 28.8028 6.58756 28.8028 8.13274V20.1295C28.8028 20.8719 28.5079 21.5839 27.9829 22.1089C27.458 22.6338 26.746 22.9287 26.0036 22.9287H6.00898C5.26658 22.9287 4.55458 22.6338 4.02962 22.1089C3.50466 21.5839 3.20974 20.8719 3.20974 20.1295V8.13274C3.20974 6.58756 4.4622 5.3335 6.00898 5.3335H26.0036ZM26.0036 7.73285H6.00898C5.90292 7.73285 5.80121 7.77498 5.72621 7.84997C5.65122 7.92497 5.60909 8.02668 5.60909 8.13274V20.1295C5.60909 20.3502 5.78824 20.5294 6.00898 20.5294H26.0036C26.1096 20.5294 26.2113 20.4873 26.2863 20.4123C26.3613 20.3373 26.4035 20.2356 26.4035 20.1295V8.13274C26.4035 8.02668 26.3613 7.92497 26.2863 7.84997C26.2113 7.77498 26.1096 7.73285 26.0036 7.73285Z" fill="#E25A93"/>
</svg>
