<svg width="32" height="32" viewBox="0 0 32 32" fill="none" xmlns="http://www.w3.org/2000/svg">
<path d="M13.3332 21.3332C14.0665 21.3332 14.6665 20.7332 14.6665 19.9998V11.9998C14.6665 11.2665 14.0665 10.6665 13.3332 10.6665C12.5998 10.6665 11.9998 11.2665 11.9998 11.9998V19.9998C11.9998 20.7332 12.5998 21.3332 13.3332 21.3332ZM15.9998 2.6665C8.63984 2.6665 2.6665 8.63984 2.6665 15.9998C2.6665 23.3598 8.63984 29.3332 15.9998 29.3332C23.3598 29.3332 29.3332 23.3598 29.3332 15.9998C29.3332 8.63984 23.3598 2.6665 15.9998 2.6665ZM15.9998 26.6665C10.1198 26.6665 5.33317 21.8798 5.33317 15.9998C5.33317 10.1198 10.1198 5.33317 15.9998 5.33317C21.8798 5.33317 26.6665 10.1198 26.6665 15.9998C26.6665 21.8798 21.8798 26.6665 15.9998 26.6665ZM18.6665 21.3332C19.3998 21.3332 19.9998 20.7332 19.9998 19.9998V11.9998C19.9998 11.2665 19.3998 10.6665 18.6665 10.6665C17.9332 10.6665 17.3332 11.2665 17.3332 11.9998V19.9998C17.3332 20.7332 17.9332 21.3332 18.6665 21.3332Z" fill="#496EC5"/>
</svg>
